<svg width="36" height="36" viewBox="0 0 36 36" fill="none" xmlns="http://www.w3.org/2000/svg">
<path d="M13.8 31.7C14.3523 31.7 14.8 31.2523 14.8 30.7V23.1C14.8 22.5477 15.2477 22.1 15.8 22.1H20.2C20.7523 22.1 21.2 22.5477 21.2 23.1V30.7C21.2 31.2523 21.6477 31.7 22.2 31.7H28.2C28.7523 31.7 29.2 31.2523 29.2 30.7V19.9C29.2 19.3477 29.6477 18.9 30.2 18.9H31.394C32.3105 18.9 32.7442 17.7698 32.063 17.1567L18.669 5.10207C18.2887 4.75979 17.7113 4.75979 17.331 5.10207L3.93699 17.1567C3.25578 17.7698 3.68947 18.9 4.60596 18.9H5.8C6.35229 18.9 6.8 19.3477 6.8 19.9V30.7C6.8 31.2523 7.24772 31.7 7.8 31.7H13.8Z" fill="#8491A0"/>
</svg>
