<svg width="30" height="30" viewBox="0 0 30 30" fill="none" xmlns="http://www.w3.org/2000/svg">
<rect width="30" height="30" rx="4" fill="white"/>
<path d="M25.0014 19.9221V22.9221C25.0025 23.2006 24.9455 23.4762 24.8339 23.7314C24.7223 23.9866 24.5587 24.2156 24.3535 24.4039C24.1483 24.5922 23.906 24.7355 23.6421 24.8248C23.3783 24.914 23.0988 24.9471 22.8214 24.9221C19.7442 24.5877 16.7884 23.5362 14.1914 21.8521C11.7752 20.3167 9.72673 18.2682 8.1914 15.8521C6.50138 13.2433 5.44964 10.273 5.1214 7.18205C5.09641 6.90552 5.12927 6.62681 5.2179 6.36367C5.30652 6.10054 5.44897 5.85874 5.63616 5.65367C5.82336 5.4486 6.0512 5.28476 6.30519 5.17257C6.55917 5.06038 6.83374 5.00231 7.1114 5.00205H10.1114C10.5967 4.99727 11.0672 5.16913 11.4352 5.48558C11.8031 5.80204 12.0435 6.2415 12.1114 6.72205C12.238 7.68212 12.4728 8.62478 12.8114 9.53205C12.9459 9.88997 12.9751 10.279 12.8953 10.6529C12.8155 11.0269 12.6303 11.3702 12.3614 11.6421L11.0914 12.912C12.515 15.4156 14.5879 17.4885 17.0914 18.9121L18.3614 17.6421C18.6333 17.3732 18.9766 17.1879 19.3505 17.1081C19.7245 17.0284 20.1135 17.0575 20.4714 17.192C21.3787 17.5306 22.3213 17.7654 23.2814 17.8921C23.7672 17.9606 24.2108 18.2053 24.5279 18.5795C24.8451 18.9538 25.0136 19.4316 25.0014 19.9221Z" stroke="#5221E6" stroke-width="2" stroke-linecap="round" stroke-linejoin="round"/>
</svg>
