<svg width="32" height="32" viewBox="0 0 32 32" fill="none" xmlns="http://www.w3.org/2000/svg">
<path d="M27.3346 14.6663H25.3346V9.33301C25.3346 7.85301 24.1346 6.66634 22.668 6.66634H17.3346V4.66634C17.3346 3.78229 16.9834 2.93444 16.3583 2.30932C15.7332 1.6842 14.8854 1.33301 14.0013 1.33301C13.1172 1.33301 12.2694 1.6842 11.6443 2.30932C11.0192 2.93444 10.668 3.78229 10.668 4.66634V6.66634H5.33464C4.62739 6.66634 3.94911 6.94729 3.44902 7.44739C2.94892 7.94749 2.66797 8.62576 2.66797 9.33301V14.3997H4.66797C6.66797 14.3997 8.26797 15.9997 8.26797 17.9997C8.26797 19.9997 6.66797 21.5997 4.66797 21.5997H2.66797V26.6663C2.66797 27.3736 2.94892 28.0519 3.44902 28.552C3.94911 29.0521 4.62739 29.333 5.33464 29.333H10.4013V27.333C10.4013 25.333 12.0013 23.733 14.0013 23.733C16.0013 23.733 17.6013 25.333 17.6013 27.333V29.333H22.668C23.3752 29.333 24.0535 29.0521 24.5536 28.552C25.0537 28.0519 25.3346 27.3736 25.3346 26.6663V21.333H27.3346C28.2187 21.333 29.0665 20.9818 29.6917 20.3567C30.3168 19.7316 30.668 18.8837 30.668 17.9997C30.668 17.1156 30.3168 16.2678 29.6917 15.6427C29.0665 15.0175 28.2187 14.6663 27.3346 14.6663V14.6663Z" fill="#5221E6"/>
</svg>
