<svg width="32" height="32" viewBox="0 0 32 32" fill="none" xmlns="http://www.w3.org/2000/svg">
<path d="M16.0013 2.66699C8.62797 2.66699 2.66797 8.66699 2.66797 16.0003C2.66797 19.5365 4.07273 22.9279 6.57321 25.4284C7.81133 26.6665 9.28118 27.6487 10.8989 28.3187C12.5165 28.9888 14.2503 29.3337 16.0013 29.3337C19.5375 29.3337 22.9289 27.9289 25.4294 25.4284C27.9299 22.9279 29.3346 19.5365 29.3346 16.0003C29.3346 14.2494 28.9898 12.5156 28.3197 10.8979C27.6496 9.2802 26.6675 7.81035 25.4294 6.57224C24.1913 5.33412 22.7214 4.35199 21.1037 3.68193C19.4861 3.01187 17.7523 2.66699 16.0013 2.66699V2.66699ZM20.668 10.667C21.1984 10.667 21.7071 10.8777 22.0822 11.2528C22.4573 11.6279 22.668 12.1366 22.668 12.667C22.668 13.1974 22.4573 13.7061 22.0822 14.0812C21.7071 14.4563 21.1984 14.667 20.668 14.667C20.1375 14.667 19.6288 14.4563 19.2538 14.0812C18.8787 13.7061 18.668 13.1974 18.668 12.667C18.668 12.1366 18.8787 11.6279 19.2538 11.2528C19.6288 10.8777 20.1375 10.667 20.668 10.667V10.667ZM11.3346 10.667C11.8651 10.667 12.3738 10.8777 12.7488 11.2528C13.1239 11.6279 13.3346 12.1366 13.3346 12.667C13.3346 13.1974 13.1239 13.7061 12.7488 14.0812C12.3738 14.4563 11.8651 14.667 11.3346 14.667C10.8042 14.667 10.2955 14.4563 9.92042 14.0812C9.54535 13.7061 9.33464 13.1974 9.33464 12.667C9.33464 12.1366 9.54535 11.6279 9.92042 11.2528C10.2955 10.8777 10.8042 10.667 11.3346 10.667ZM16.0013 23.3337C12.8946 23.3337 10.2546 21.387 9.18797 18.667H22.8146C21.7346 21.387 19.108 23.3337 16.0013 23.3337Z" fill="#5221E6"/>
</svg>
